<mxfile host="app.diagrams.net" modified="2021-02-04T08:31:09.989Z" agent="5.0 (Windows)" etag="40o8WpMtfBhq-xpxM5ZE" version="14.1.8" type="github">
  <diagram id="MnezL5NAF8C2aSRuctBU" name="Page-1">
    <mxGraphModel dx="3220" dy="1272" grid="1" gridSize="10" guides="1" tooltips="1" connect="1" arrows="1" fold="1" page="1" pageScale="1" pageWidth="850" pageHeight="1100" math="0" shadow="0">
      <root>
        <mxCell id="0" />
        <mxCell id="1" parent="0" />
        <mxCell id="ZW9950_h4QcM178EK5Ji-2" value="" style="ellipse;whiteSpace=wrap;html=1;strokeWidth=3;" parent="1" vertex="1">
          <mxGeometry x="-480" y="400.5" width="1775" height="1150" as="geometry" />
        </mxCell>
        <mxCell id="0EyMxYRM3sE1ujKV8BTT-9" style="edgeStyle=orthogonalEdgeStyle;rounded=0;orthogonalLoop=1;jettySize=auto;html=1;entryX=0.5;entryY=0;entryDx=0;entryDy=0;fontSize=20;startArrow=classic;startFill=1;" edge="1" parent="1" source="DmFKKeBw7BDAcUaFhrxw-26" target="ZW9950_h4QcM178EK5Ji-1">
          <mxGeometry relative="1" as="geometry" />
        </mxCell>
        <mxCell id="DmFKKeBw7BDAcUaFhrxw-26" value="User Touch Screen Panel" style="pointerEvents=1;shadow=0;dashed=0;html=1;strokeColor=none;fillColor=#505050;labelPosition=center;verticalLabelPosition=top;verticalAlign=bottom;outlineConnect=0;align=center;shape=mxgraph.office.devices.tablet_ipad;fontSize=20;" parent="1" vertex="1">
          <mxGeometry x="187.5" y="980" width="80" height="120" as="geometry" />
        </mxCell>
        <mxCell id="7P57h7jw-dz2YICdta8h-39" value="" style="shape=table;html=1;whiteSpace=wrap;startSize=0;container=1;collapsible=0;childLayout=tableLayout;labelBackgroundColor=#E6E6E6;" parent="1" vertex="1">
          <mxGeometry x="40" y="10" width="780" height="50" as="geometry" />
        </mxCell>
        <mxCell id="7P57h7jw-dz2YICdta8h-40" value="" style="shape=partialRectangle;html=1;whiteSpace=wrap;collapsible=0;dropTarget=0;pointerEvents=0;fillColor=none;top=0;left=0;bottom=0;right=0;points=[[0,0.5],[1,0.5]];portConstraint=eastwest;labelBackgroundColor=#E6E6E6;" parent="7P57h7jw-dz2YICdta8h-39" vertex="1">
          <mxGeometry width="780" height="50" as="geometry" />
        </mxCell>
        <mxCell id="7P57h7jw-dz2YICdta8h-41" value="&lt;font style=&quot;font-size: 23px&quot;&gt;&lt;span style=&quot;background-color: rgb(230 , 230 , 230)&quot;&gt;&lt;font style=&quot;font-size: 23px&quot;&gt;AIRPOD Diagram &amp;nbsp;&amp;nbsp;&amp;nbsp;&amp;nbsp;&amp;nbsp;&amp;nbsp;&amp;nbsp;&amp;nbsp;&amp;nbsp;&amp;nbsp;&amp;nbsp;&amp;nbsp;&amp;nbsp;&amp;nbsp;&amp;nbsp;&amp;nbsp;&amp;nbsp;&amp;nbsp;&amp;nbsp;&amp;nbsp;&amp;nbsp;&amp;nbsp; &lt;/font&gt;&lt;/span&gt;&lt;/font&gt;" style="shape=partialRectangle;html=1;whiteSpace=wrap;connectable=0;overflow=hidden;fillColor=none;top=0;left=0;bottom=0;right=0;align=center;labelBackgroundColor=#E6E6E6;" parent="7P57h7jw-dz2YICdta8h-40" vertex="1">
          <mxGeometry width="780" height="50" as="geometry" />
        </mxCell>
        <mxCell id="7P57h7jw-dz2YICdta8h-44" value="Revision 2.0" style="text;html=1;align=center;verticalAlign=middle;resizable=0;points=[];autosize=1;" parent="1" vertex="1">
          <mxGeometry x="740" y="60" width="80" height="20" as="geometry" />
        </mxCell>
        <mxCell id="ck-XuCuuVgkl051vshuR-4" value="Airpod Router" style="image;html=1;image=img/lib/clip_art/networking/Router_128x128.png" parent="1" vertex="1">
          <mxGeometry x="410" y="1050" width="80" height="80" as="geometry" />
        </mxCell>
        <mxCell id="ck-XuCuuVgkl051vshuR-8" value="" style="group" parent="1" vertex="1" connectable="0">
          <mxGeometry x="90" y="100" width="240" height="180" as="geometry" />
        </mxCell>
        <mxCell id="DmFKKeBw7BDAcUaFhrxw-19" value="" style="group" parent="ck-XuCuuVgkl051vshuR-8" vertex="1" connectable="0">
          <mxGeometry x="-270" y="150" width="100" height="50" as="geometry" />
        </mxCell>
        <mxCell id="DmFKKeBw7BDAcUaFhrxw-2" value="" style="shape=image;verticalLabelPosition=bottom;labelBackgroundColor=#ffffff;verticalAlign=top;aspect=fixed;imageAspect=0;image=data:image/png,iVBORw0KGgoAAAANSUhEUgAAAJ4AAACRCAIAAAC9sZb5AAAAAXNSR0IArs4c6QAAAARnQU1BAACxjwv8YQUAAAAJcEhZcwAAFiUAABYlAUlSJPAAABLqSURBVHhe7Z15VFRVHMeTRSAVEEhABAQElCVURGrMFMoTGplWqCVJZJnZseW4l6cIKiQOdjqCZp1OegpSMAyCinRGZcsNl1EIBCwWERFkTxTQvod3Y0ZlZu6sMo/7+UPndx+zve/7be/e92bY9evXH2DwEQPyP4N3MGl5C5OWtzBpeYvSZdTt27f7/2XojGF9EIMOKmnxN3V1dS0tLf/8809HR0dra2tvby/ZxtAJpqamY8aMMTc3d3V1tbCwsLGxIRtko0BaeCdUrK+v/+23386dOycUChsbG9va2shmhg6BqPb29osXL/b09BQIBAZ9kG0DIVPaW7duYVNOTk5SUlJFRUVDQwPZwBgEQFrw0ksvQWaZAkO/AUHULSkpmTZtGvk7xuDjo48+gkxEsHsYQFpk05qamoiICBcXF/IajEGJiYlJZGRkamoqJCPiSTFAQO7q6hKLxUFBQUi0rBIe5EBdLy8vkUiEOosM/c/dYfrGjRtffvnlqlWrkGuZroMf6FVaWrpt2zY0L2Tof+6WFq6dl5f3119/EZsx6EHcLSwsPHbsGLH76QvLBFTCu3btIhsYesX48eMhHxGyjzu8FtsKCgqIwdArEG4hHzH6kEiLzHrhwgW4NrEZekVnZyfk6+7uJra0tHDhU6dOoZclNkOvgHynT59GSUVsaWkheHNzM6uK9RfIV1tbSwxpaVFGX7lyhRgMPaS+vh4xmRjS0vb29nZ1dRGDoYdAvtbWVmJITw/Al+fPn0/T0b788subN2/u6elh0VsHGBsbnzx5cvXq1deuXSNDMpg0adKTTz75+eefc6Yq0q5atQrPZ6erdIOhoSE60vDw8KtXr5IhGdwlrSQg02NgYID3w9E0nKF9sKsB2fXKoIq0DL2ASctbmLS8hUnLW5i0vIVJy1uYtLyFSctbmLS8hUnLW5i0vIVJy1uYtLyFSctbmLS8hUnLW5i0vEUVadm6Gb1AIi0Eo7xDBbuRhV4gWfbW0dEhFAr7TTk4OTkJBAJiMLRPQUHBiy++qOyyN4m0PT09TU1Nt27d4kw5mJmZWVpaEoOhfVSTVhKQjYyMbG1t7SlguuoFrELmLUxa3sKk5S1MWt7CpOUtTFrewqTlLUxa3sKk5S1MWt7CpOUtEmlv3brV1kd7e3tnZ2dXV9fNmzd7enrIZoa+IZEWQv7TR21t7eXLl1taWiDzjRs32MS7niKZ1KupqQkNDb3jxkMGBtbW1jY2NmZmZq6urpaWluPHj7ewsLC1tXV0dBw5ciS2mpiYmJqayr8JPkNN1J2vHfAONNAMDBs2jHtgaGjIPQ4ODvbx8Zk1a5a9vT1kNjIyUvanShj0qDtfOyBIwEi33d3diMw4CDo6OpCJW1tb9+/fHxMTgxfy9vaeMWNGWFjYtm3bjhw5UlxcjK3SN4Fk3C80EEhLS0uFQuGnn376/vvvJyYmlpWV4Qgg2xj3Dw1ICx/lbiF36tSpXbt2IUq7ublFRkYmJCScPHmyubkZHk/+lKFDtFL+QOmsrKytW7fGxcWdPXtW4R3oGNpAK9KiX0JMhqIQeO7cuVOmTNm8eXNaWtqlS5dYrNYZWpH2LlB5ffvtt5999ll2dvbFixdZo6wbdCEtyuyWlhZUW++8887s2bPXrVsnFovZL7lpG11IKw1KqpSUlKioqEOHDpEhhnbQtbTwYNTMRUVFycnJ6enp5eXlZAND0+haWg5E4wMHDrz55pshISE7d+6895elGOpzf6TlaGtrq6urg+8mJiYydTWORFqEyps3bxJDh+Tm5m7fvv2FF16AH7OTGxrEEB0nedj3s4oBAQGP9uHXh4eHh52dna2trbGxsZGRUVdXl5ZaF26SGE7s6elpZmZGRhl91NTU/PTTT//++y+xZfDQQw+5urrOmTOHMyUzP/3AfaFfT08PNzfATcjjz7Dra2trm5qaTpw4IRQK8X5QmjxHQ+AACgsLCw0NXbhwIRliqDrzc4fXcnDTdvBR7Gj48YMPPjhy5EhLS0srKyscF/b29nBiZ2dnvBAejB49+tq1a729vRrxZhxMHR0dKKHd3d3xjvgMZMPQRmNeSwOEhJzwY7xfVVVVdXV1RkYGXFn6d2ZUxtDQEB9x8uTJX3zxhbW1NRkdwmhlvlYW8Gy4lIWFBZwYGsycOXPJkiXh4eGIpTY2NuSPVAUHDQpmfB8UVvelsuMHGmh+TE1NITBERZ8aGRkJpceOHYtITjarRHd3N0qqffv24VBlZbNqaKyvhR+7ubnNmzcvLS0tLy8vKipq6dKl48aNI5tVIjs7e8WKFV999ZXCNMO4F82fsoATw2uXL1++du1atFKohu79hXp6RCJRenr6pUuXNF6N8x7NS8sxatSoiRMnfvfddyjtYmJi/P39Ub+RbUpy/PjxiIiIuLg4NterFNqSlgMZVyAQvPrqq+hTfX19hw8fjraKbFOG06dPZ2ZmwndZ3qVHu9JyoDNes2ZNcnLyJ598giIeJtmgDCUlJQjyCQkJLO9SogtpOZB0V65cuWrVKicnJ9XWLRcVFf3yyy/s95Mp0Z20wNjYeOrUqUKh8O2333700UfJqDKcOXPmjTfeQNfLIrNCdCoth5WVFdwX2dfMzEyF1IvO6ujRo21tbcRmyEByDhndBaqV6urqq1evNjQ0XLt2rb29/fbt24icQLXyRxYWFhbTp0/38/NDIX3x4sXu7m6lTkHn5ubiWUFBQQgDmv1ggxPVziFL9guE3Lt37+7du1NTU9FK5uTkYA9euHABMre2tkL4mzdvcpNC5AlqExwcvG7dOhcXF2ULq+bmZnzUqqoqFpblIPFa6Ldjxw4ks4qKirKysvPnz586daqgoODQoUP5+flIb3V1ddxsDHoY7ilqgmCA7sjc3LyxsVGFVRaI5+7u7kNh/kDdmR/K34pHDHz66acjIiI8PT0dHR0RD9UMiQgDCMivv/76vn37EBXIKAUjRozw9vYWiUT4ADhKyCgf0dHMT29v7/Hjx+Pj4zdu3AgxxGIx2aAqUAWRYNmyZRMmTCBDdCAal5eX42uzs1QDorS0cCxE5sLCwszMzMjISPQwcJ3Y2FiUrCqnYbjdE088gXSwevVqev/r6elB0kUvhGaXDDGk0EB5iToL7vvhhx8imKtzqggR/tlnn8WBQmw6UMmnpKSwU1T3ogFpEQ9LSkp27twJDw4ICCgqKiIblAQF0YwZM6KiopRaGIVoIRQKt27dSmzG/2hA2n4QIeHBW7Zs+fjjj5uamsiokkydOjU8PNzZ2ZnYdKBPYycg70KT0nKL1rKysuLi4hYsWBATE9PZ2Um2UWNvbx8SErJhw4bp06eTIQpQ2aEdV+HteIwmpe0H9VRlZWVGRsYPP/ygwuImVFKIzKiZ6Rcko33iunBiM7QkLUDtWlxcvGbNmg8++CA/P5+M0gFpPTw80MktWbKEDCkCAQNeu379enYFfj/akpYDTfCBAwd27dp16dIlOBYZpcPExCQoKMjCwoLYioC60FXhKZehg3alBWVlZSKRKCcnp7S0VKmTTYaGhv7+/u7u7ubm5mRIEci1YrG4paWF2EObO6RVatfTc/ny5ffee2/58uWnT59Wag26q6trfHz84sWLKS8jQHeLHvfrr7/W0hfRLyTSwkscHBxcXFzwr62trTrLEO8FxdS5c+eys7ORgBGlySgFkydPFggE9FNDVVVVx44dY6UykEwPYO+Xl5d39YHHdXV18DBkL9S69fX1RUVF8AmlVBkQT0/PHTt2KLXEAu+LciwvLw+fhAzJZdSoUUlJSWFhYcTWf1SbHpBM6sFrx4wZM3bsWCcnJ/iut7c3PAapzsbGxs7ODv3M6NGjEeiAsgWRNE1NTXiXwMBA7naPZFQuxsbGN27cQFSnvDsCPh4+9tSpUzUbeO4jqk3qDXClHodB38V6KFCxmwICAhYsWLBw4UK0m3A41DWoiVSeDCgsLMSn5K74I0OKQC80YsQI+murEXU6OjrwaYmt56i7ykI+w4cPt7Kymjlz5vPPP492E243ceJEDNJP1Eizf//+Q4cOIbxTHh84yHx9fZ2dnSmTLjLuiRMnhvgaDJleKwuERxwaEHjevHlwO7g1PJhsowYudfjwYR8fH4R6yrCJdIC3wxOl79gsC5RRaIFQfzk6OpIhfUa7XnsXCI9ubm5Lly5FteLl5aXshZdw1p6eHhTMf//9NxmiAHkB70XfCFVUVKicNXiAWqcs4HNIwBkZGd98840Kv0Odnp6Ofhf1EWVdhvSMaIEqjNhygX//8ccf7e3txB56qCUtx7hx40JCQkJDQ5VdgYawiR4UbRV9G4rqHTU8MRRRXV2NVx6yjqsBaTkWLVo0a9YsYihDSkoK+mZiKGLkyJGPPPIIMRSBZgkZd8iemdKYtA4ODtu3bxeJRBMmTFBqNSvqqdjYWMq5P3TDb731FrovPCBDsoGu3GJ0Yg8xNCYtgEuhzEHlrFRV1dbWlpOTo/BUSz8IyH5+fpRdkFgsrq2tJcYQQ5PSwpPQC0VHR2dmZqIHpVyfjO62tbV106ZNlG0oQgIcFyUVseWSlpaGqIBqnNhDCU1Ky4Fdj25y9uzZSoXlc+fOoVQmhiJcXFzQwxFDLmiBrly5MjTPXUikRSWJhAfgRuqUHsOGDUMu3LJlC3qbUaNGkVFFoMHNyspS2JVzICSgayKGXPBdEJPVWSOtv0ikRdRCpYpjHDtC/cMceXfixIkBAQHEVgRa25KSEso1EmZmZj4+PsRQBMqooVknS6SFrs8884yHh8ekSZMCAwNfeeWVqKiovLy8xsZGFbpDIyMjpMMNGzbgX5pqFrv+4MGDiYmJNHkRoR6OO3fuXJrlNUjkZ8+epY/2vEEiLQIpV/hASFSVQqEwOTl548aNP/7445kzZ1SbqfX29nZzc4MHE1suDQ0NxcXF9AuYUSdTLnlEtFd5XbT+IpEWcNM48Jvr16/DWSEwqpuMjIzdu3cfOHCgoqJC2bBmaWkZFBREeZ0WsgDUraqqIrYi8LKUUwuVlZV4ZWIMGe6Q9l6QAgsKCr7//vsVK1Y899xzP//8c3V1NdlGAULx6tWrly1bRtmG4ngSiURddHf/mjZtGhyXGHI5cuQIsvhQq6QUSNsPdnp5eXlqaip6VtRZZJQCFMkPP/wwZUxG2EeooJwOwiu7u7sTQy7Nzc1Xr14dat0trbQcCM7R0dHr169Hj0TvBHCvRYsWoTojtlyOHz+OHE8MuaDFCgkJIYZcUD0gzlMGA96gnLSgvb09Nzf38OHD9Mt9US0LBAJXV1diywWlLLogHDrElg3qZCcnJ2IoApGG3msRPJD4BwnIiarVsErf8IADde9TTz2VkJBAbEXAY/bs2bN27Vqa+TtHR8dff/2VpvhC5PDy8sLRgF1AhmTg6+uLQoFyQhDHbnx8PM1H1QGobeFOpaWlCme10Y/MmTMnNjaW2JCWA6mUMmYCdB3Yp2KxGGmMPF8ROTk5lNMGtra2KHzI0xSBCpzmnBf8G9U+eY4i9u7dS39ByuBh8uTJmzZtIt/h+nWlAzIHnomw+e677/75559kSBFTpkwZPXo0MeTS2tqKTpoyfj722GM0NVpdXR39WQsU9qot57u/WFlZSWcoFaXlgLr5+fmUzS76Hzg6zQJVRJ4rV6500N18ZMyYMcbGxsSQDQ4UpQp7fQR1pfTuVUtadBRJSUnnz5+nOa0PV4iIiKC5bgBVQ2VlJV6W2HJBdUZ5M3x+n2tEmEF1In29uVrSQgMEz4KCAsqKw8HBgTImw2UpJ+cRjXG0EkMu/PZaU1NTRGPpXaGWtBwHDx6kbIQQLiin+XCsUJ71RUFnZ2dHDLnw+6rqESNGeHh4SOcmDUh79uxZyjs3WVtb+/v70zhZTU0NXpYYckHtgE6MGHKhPzutd8BnBALBXQsCNSAtEi2lDEZGRlCCZo04wgBlajQwMKCMBAp7X/3Fx8dn7ty5d9UcGpAWDbVIJKIsaMeNG0czVYBoXFFRgRaL2LJBCKJcJ0VzRYnegSObmxcPDw8nQ/+jAWnRVzQ2NlJWPUgJlFd2oKeiOd2I70Y/rUQe8QjuyA4MDLx3r2pAWo6ysjLySC4InvTSKjy1BrhllMSQC/9m46dMmbJnz57ff/99wBWGGpO2ubmZPJILdKVcxHq77xcZiSEXmgU6vGT+/PnBwcGySo079rI6k9WoackjuUBaynN43PQLMWSDA0XjV78Pzkl75DK0GH5+fo8//nh8fPzRo0c3btwoZ0WwRFp8H2XXx0hDuc4UulJKi89DE5C1Ad4aEGPQgA7Hy8vrtddei46OXrlypa+vL9kgA8mkHqohZCP6Sc27wDFlaWlJDLk0NDRQJlEcpArPD3PVFmUedXBwII/kgsMU3dfgURfOYNYHfJQynYE7fppYnaNVKXekeRf6FwSU8YY+zdN8Ql2i1N7guENaBp+g9W6G3sGk5SkPPPAfdj0xe20XV+8AAAAASUVORK5CYII=;" parent="DmFKKeBw7BDAcUaFhrxw-19" vertex="1">
          <mxGeometry x="62.31" y="25" width="27.241666666666667" height="25" as="geometry" />
        </mxCell>
        <mxCell id="DmFKKeBw7BDAcUaFhrxw-3" value="" style="shape=image;verticalLabelPosition=bottom;labelBackgroundColor=#ffffff;verticalAlign=top;aspect=fixed;imageAspect=0;image=data:image/png,iVBORw0KGgoAAAANSUhEUgAAAM0AAACcCAIAAABTDLhsAAAAAXNSR0IArs4c6QAAAARnQU1BAACxjwv8YQUAAAAJcEhZcwAAFiUAABYlAUlSJPAAAAtSSURBVHhe7Zx/TE/fH8f1Tj9EHzWr0cYfNvMjsczPyTTzc36k5VMWNrXYGvlNa6zRZq2FZvgLi/4wfAsJSbRCGqIpDJNfRdJIiop+fJ91T5/Sz/f7XZ3u+76fjz/ee5/Xve9z7j334XXOuffKorKysl/HvH//PjU1NTo6+tevX6WlpbW1tWIDMWMsLS0dHR0HDhy4ZcuWWbNmubq6ig3tYWtri8/2Pauvr3/z5s27d++SkpLu3buXl5cnNhDyN87OzqdPnx4+fPjIkSMtLCxEtAWKZ/3gWSsqKirS0tIgqb29feOehHQGPIEtcAbmCIdagJwFdGLfJurq6l6+fJmSkvL69evy8nIRJaRj4AlsgTMwB/6IaCuEdU3gB25ubnZ2dmIzIfoBZ2AO/BEmNaHks788+/btW3BwMGZ54qeEGALMgT+wSPjUSGvPnj17dvToUfELQowFFsElYVXb+VlBQQHXlaT7wCK4JAr/oUhXWloaGBgoQoR0D7gEoxS1/spnGFNzcnKU74R0E7gEo0ShkQbPamtrq6urea+f9BRtjWrw7OvXr0+fPs3Pz1dChHQTuASj4JUot8xnP3/+VEKEdBO41CqfNTzfjIiIiIyMFAG9sWhClIlGUSbyQJT1JiwsLDw8vPk5unGe6XQ6GxsbfIoy0Sh1dXVITh0+UOqYnvFs/Pjx0dHRnp6eokw0Snp6+s6dOzHfEmW9aemZ8dkIibSmpkYUiHbBVTZi0GwFRz0iA3pGZEDPiAzoGZEBPSMyoGdEBvSMyICeERnQMyIDekZkQM+IDOgZkQE9IzKgZ0QG9IzIgJ4RGdAzIgN6RmRAz4gM6BmRAT0jMqBnRAb0jMiAnhEZ0DMiA3pGZEDPiAzoGZEBPSMyoGdEBvSMyICeERnQMyIDekZkQM+IDOgZkQE9IzKgZ0QG9IzIgJ4RGdAzIgN6RmRAz4gM6BmRAT0jMqBnRAb0jMiAnhEZ0DMiA3pGZEDPiAzoGZEBPSMyoGdEBvSMyICeERnQMyIDekZkQM+IDOgZkQE9IzKgZ0QG9IzIgJ4RGdAzIgN6RmRAz4gM6BmRAT0jMqBnRAb0jMiAnhEZ0DMiA3pGZEDPiAzoGZEBPSMyoGdEBvSMyICeERnQMyIDekZkQM+IDOgZkQE9IzKgZ0QG9IzIgJ4RGdAzw8jNzRXfiCHQM32pqak5e/asv78/PvFdRIl+0DO9qKqqWrp06a5du/Lz8/GJ74iIbUQP6FnXJCUlBQYGpqenl5SUoIhPfEcEcWUH0iX0rAuQt2JiYjIyMkS5CUQQZ1bTE3rWGVevXl2/fn1WVta3b99EqAlEEMdW7CNCpGPoWfvU1dXFx8dDo8TERBFqD2zFPtgT+4sQaY9ueWZpaSm+aYv6+vqUlJRr164haf3+/VtE2wNbsQ/2xP74lYhqix65yhaVlZURERGRkZEioDcjRoxYu3bthAkT0L+93cXOzs7Dhg1Di6LcyyQkJGzevLmioqK6ulqEOsXGxmbQoEGHDx/28fERoV7mw4cPRUVFX758EeXewaKR3NzcU6dOoUUR1ZuwsLDw8HBbW1t8b/Ds3LlzsbGxbae66uHfRpYuXSrKvQbcyszMXLdunbK0NAgnJ6fjx4/PnDkTzolQr4Gl7v8aEWX1MXv27ICAAD8/P8WzhnHTzc1t0aJFjVvNHUzq4+LiysrKRNkQ8Cv8lssCBRgFr0RB8Wzw4MEYlbQ62dKT8vJyTLO2b99+4cKFzudkHYFf4beoAfWgNhE1S+ASjIJXoqx4htD06dNdXV2VkLmBpSLmOsHBwRs2bPj69auIGgtqQD2oDXWa7SIULsEoeCXKimc6na5///5mm88wy0ESwozn8+fPItQ9UA9qQ51qnj/1KnAJRsErUVY8A9bW1g4ODsp38wHL5OLi4uTk5AcPHhg3VnYEakOdqBn19/ZiXIXAJRglCo0IzxwdHUNCQoKCgpSiOYDLj3yzY8eOS5cuffz4UUR7DtSJmlE/WjEr1WARXIJRotyI8AyJbtSoURMnTrSyslIi2ubXr1/p6emhoaHx8fF63iQzAtSM+tEK2kKLIqpp4A8sgkutpmHNI6iLi8uMGTPGjh0rytoF2QXzp5MnT5aWlopQb4JW0BZaNIesBn9gEVwS5SaaPbOzs8MyISoqCssETOJEVHPgYqelpe3atSshIaH3MllL0AraQotoV8OqwRmYA39gEVwS0SaaPVNwd3c/cODAggULRFlbFBUVJSYmYgLR209s2oIW0S5axzGIkLaAMzAH/ojy37T2bPDgwXPmzHFzc9PebQ7kkry8vKNHj/bU/QtDQbtoHcegvawGW+AMzGl5b7Yllnv27BFfm7C1tfX09KyqqsKSoaCgQA3vwiMVg9GjR4uy4eAaYzK+adOm58+fi1BfUFhYePv27ZEjR+J6dOcx6KtXr3AifXsuCrAFmWzZsmX79u1THmW2QpmDteOZgoeHx8KFC9EdGGvfvn3bt7e2u+MZkgfYuHHjkSNHiouLRbTvKC8vx0QtPz/fy8sLRQsLCyVuEGrwDEvLxYsXr169Ojw8fN68eR0NgF14hp8NGDAAaweoihXTmDFjpkyZAuF0Ot2fP3/ETrLojme4qNu2bbt8+XJlZaUI9TU4kmfPnmVnZzs7OyO3iagh9JVnSDoDBw5ctWoVLgfcOHbsGPIRPOlkltWFZ/8BsdAX0xsZMmQImnnx4oXYJotRo0ZBsnHjxomyIezduzcrK0uFt6/KGvH29hZlQ8AkD7x8+VKUZbFkyRIfH581a9ZAhqlTpzo5OXWZjxXPGt4/U8qqRZk1GzG+3LhxA2PlzZs3RVmVzJ07NyQkZP78+aKsYjB3avnIUk+a33NUyloCPXLlyhUMl+p/aQJXbtiwYYcOHUKqMOIqqp/m9xy1B+bayGQfP35U/5s5OEIcJ45W26+sac0zJZNhdZmZmSlCpgCOFseMI1f/Pwzj0Nq4ee7cue3btyM39Ox7PhKwtra2t7c/ePCgn5+fCGkCrc3Pfvz4ERAQkJOTY9IPdjBXc3d3j42N/eeff0TIxNHU/AzDTUpKysOHD9v+x3HTAsePs8C5aGwANfl8Vl9fX1FRgUz2+PFjzTyiRlabNGkSstqgQYOMe2CgHjQybl6+fDkhIUF7f3lAp9OtWLHCx8dn2bJlImSaaGHcxJzsxIkTGRkZ2lum4YxwXjg7nKMImTIm7Nnnz5+Dg4Nv3bqlhqfjvQHOC2eHc+yrF5l6EJMcNzEnO3/+/KVLl65evSr/ob5klNcili9f7uvra4pzNRMeN0tKSq5du4Z1meYlAzhHnCnO14g/+aEeTCyfIZNdvHgRmSwxMdHk7sR2B2tray8vL2Q1b29v08pqprfeLCsry87ODgoK0sB8xTiGDh2KlcHkyZM7ej1ahZiSZ1h8ffnyZffu3Xfu3CkoKBBRs2T48OGzZs3av3+/s7OzSbzfYUrzM6ztnzx5gsWXmUsG0APoB/SGad3vUHs+UzJZaGjo3bt3P336JKJmj4uLi4eHR1RUlPqzmmmMm2fOnElISEhNTTWHpaVBWFlZzZs3z8fHx9/fX4RUiQmMm8XFxdevX3/06BElawv6BD2D/jGJ29SqzmcrV65MTk42q/sXhmJtbb1o0aKzZ8+KsvpQdT5LS0vz9fU1t5tkRoD+QS+hr9BjIqRKVJfPSkpK7t+/v3Xr1qKiotraWhElnWLZ+PdgY2Jipk2b5uTkJKLqQI35DKvL3NzcuLi4wsJCSqY/6Cv0GPoNvafOV1dUlM8wsS0vL4+MjPz+/bs6O0vl6HQ6BweHsLAwe3t79fy9RNXd16ivr6+pqamurjb1N0j7EPShjY1N//791dOHDZ716/d/BVa7ZepEeHYAAAAASUVORK5CYII=;" parent="DmFKKeBw7BDAcUaFhrxw-19" vertex="1">
          <mxGeometry x="9.999999999999943" y="25" width="32.858333333333334" height="25" as="geometry" />
        </mxCell>
        <mxCell id="DmFKKeBw7BDAcUaFhrxw-17" style="edgeStyle=none;rounded=0;orthogonalLoop=1;jettySize=auto;html=1;exitX=0.5;exitY=0;exitDx=0;exitDy=0;" parent="DmFKKeBw7BDAcUaFhrxw-19" source="DmFKKeBw7BDAcUaFhrxw-3" target="DmFKKeBw7BDAcUaFhrxw-3" edge="1">
          <mxGeometry relative="1" as="geometry" />
        </mxCell>
        <mxCell id="DmFKKeBw7BDAcUaFhrxw-18" value="Screen Mirroring" style="text;html=1;align=center;verticalAlign=middle;resizable=0;points=[];autosize=1;" parent="DmFKKeBw7BDAcUaFhrxw-19" vertex="1">
          <mxGeometry y="5" width="100" height="20" as="geometry" />
        </mxCell>
        <mxCell id="ck-XuCuuVgkl051vshuR-12" value="Airpod WiFi" style="group;labelPosition=center;verticalLabelPosition=bottom;align=center;verticalAlign=top;" parent="1" vertex="1" connectable="0">
          <mxGeometry x="150" y="760" width="80" height="90" as="geometry" />
        </mxCell>
        <mxCell id="DmFKKeBw7BDAcUaFhrxw-5" value="" style="pointerEvents=1;shadow=0;dashed=0;html=1;strokeColor=none;fillColor=#434445;aspect=fixed;labelPosition=center;verticalLabelPosition=bottom;verticalAlign=top;align=center;outlineConnect=0;shape=mxgraph.vvd.wi_fi;" parent="ck-XuCuuVgkl051vshuR-12" vertex="1">
          <mxGeometry x="43.5" width="20" height="20" as="geometry" />
        </mxCell>
        <mxCell id="ck-XuCuuVgkl051vshuR-2" value="" style="image;html=1;image=img/lib/clip_art/networking/Wireless_Router_128x128.png" parent="ck-XuCuuVgkl051vshuR-12" vertex="1">
          <mxGeometry y="10" width="80" height="80" as="geometry" />
        </mxCell>
        <mxCell id="DmFKKeBw7BDAcUaFhrxw-11" value="" style="pointerEvents=1;shadow=0;dashed=0;html=1;strokeColor=none;fillColor=#505050;labelPosition=center;verticalLabelPosition=bottom;verticalAlign=top;outlineConnect=0;align=center;shape=mxgraph.office.devices.cell_phone_iphone_standalone;" parent="1" vertex="1">
          <mxGeometry x="210" y="285.5" width="30" height="50" as="geometry" />
        </mxCell>
        <mxCell id="DmFKKeBw7BDAcUaFhrxw-14" value="" style="pointerEvents=1;shadow=0;dashed=0;html=1;strokeColor=none;fillColor=#505050;labelPosition=center;verticalLabelPosition=bottom;verticalAlign=top;outlineConnect=0;align=center;shape=mxgraph.office.devices.tablet_ipad;" parent="1" vertex="1">
          <mxGeometry x="250" y="265.5" width="50" height="70" as="geometry" />
        </mxCell>
        <mxCell id="DmFKKeBw7BDAcUaFhrxw-15" value="" style="pointerEvents=1;shadow=0;dashed=0;html=1;strokeColor=none;fillColor=#505050;labelPosition=center;verticalLabelPosition=bottom;verticalAlign=top;outlineConnect=0;align=center;shape=mxgraph.office.devices.laptop;" parent="1" vertex="1">
          <mxGeometry x="300" y="254.5" width="110" height="81" as="geometry" />
        </mxCell>
        <mxCell id="DmFKKeBw7BDAcUaFhrxw-16" value="&lt;div&gt;Mobile devices:&lt;/div&gt;&lt;div&gt;iOS&lt;/div&gt;&lt;div&gt;Android&lt;/div&gt;&lt;div&gt;Windows&lt;br&gt;&lt;/div&gt;" style="text;html=1;align=center;verticalAlign=middle;resizable=0;points=[];autosize=1;" parent="1" vertex="1">
          <mxGeometry x="170" y="220" width="100" height="60" as="geometry" />
        </mxCell>
        <mxCell id="ZW9950_h4QcM178EK5Ji-1" value="PLC" style="rounded=1;whiteSpace=wrap;html=1;strokeWidth=5;strokeColor=#FF0000;fontSize=26;fontStyle=1" parent="1" vertex="1">
          <mxGeometry x="75" y="1330" width="305" height="170" as="geometry" />
        </mxCell>
        <mxCell id="ZW9950_h4QcM178EK5Ji-3" value="" style="rounded=0;whiteSpace=wrap;html=1;strokeColor=#000000;strokeWidth=3;direction=south;fontSize=20;" parent="1" vertex="1">
          <mxGeometry x="740" y="662.5" width="350" height="626" as="geometry" />
        </mxCell>
        <mxCell id="ZW9950_h4QcM178EK5Ji-4" value="Digital Signage Screen" style="text;html=1;strokeColor=none;fillColor=none;align=center;verticalAlign=middle;whiteSpace=wrap;rounded=0;fontSize=19;" parent="1" vertex="1">
          <mxGeometry x="820" y="900" width="190" height="100" as="geometry" />
        </mxCell>
        <mxCell id="ZW9950_h4QcM178EK5Ji-5" value="PC for Digital Signage" style="shape=image;html=1;verticalAlign=top;verticalLabelPosition=bottom;labelBackgroundColor=#ffffff;imageAspect=0;aspect=fixed;image=https://cdn3.iconfinder.com/data/icons/electronic-devices-vol-1-1/36/1_graphic_card_electronic_device_motherboard_smps_hardware_chip_1-128.png;strokeColor=#000000;strokeWidth=3;fontSize=20;" parent="1" vertex="1">
          <mxGeometry x="740" y="1150" width="150" height="150" as="geometry" />
        </mxCell>
        <mxCell id="ZW9950_h4QcM178EK5Ji-8" value="Controls: Door, Window, Lights, Sensors, AC, Chair, Audio amp" style="text;html=1;strokeColor=none;fillColor=none;align=center;verticalAlign=middle;whiteSpace=wrap;rounded=0;fontSize=19;" parent="1" vertex="1">
          <mxGeometry x="100" y="1430" width="270" height="70" as="geometry" />
        </mxCell>
        <mxCell id="ZW9950_h4QcM178EK5Ji-9" value="" style="verticalLabelPosition=bottom;html=1;fillColor=#A153A0;strokeColor=#ffffff;verticalAlign=top;align=center;points=[[0,0.5,0],[0.125,0.25,0],[0.25,0,0],[0.5,0,0],[0.75,0,0],[0.875,0.25,0],[1,0.5,0],[0.875,0.75,0],[0.75,1,0],[0.5,1,0],[0.125,0.75,0]];pointerEvents=1;shape=mxgraph.cisco_safe.compositeIcon;bgIcon=mxgraph.cisco_safe.design.blank_device;resIcon=mxgraph.cisco_safe.design.sensor;fontSize=19;" parent="1" vertex="1">
          <mxGeometry x="510" y="1440" width="50" height="45" as="geometry" />
        </mxCell>
        <mxCell id="ZW9950_h4QcM178EK5Ji-10" value="" style="aspect=fixed;perimeter=ellipsePerimeter;html=1;align=center;shadow=0;dashed=0;fontColor=#4277BB;labelBackgroundColor=#ffffff;fontSize=12;spacingTop=3;image;image=img/lib/ibm/users/sensor.svg;strokeColor=#000000;strokeWidth=3;" parent="1" vertex="1">
          <mxGeometry x="580" y="1432.5" width="60" height="60" as="geometry" />
        </mxCell>
        <mxCell id="ZW9950_h4QcM178EK5Ji-11" value="" style="outlineConnect=0;dashed=0;verticalLabelPosition=bottom;verticalAlign=top;align=center;html=1;shape=mxgraph.aws3.sensor;fillColor=#5294CF;gradientColor=none;strokeColor=#000000;strokeWidth=3;fontSize=19;" parent="1" vertex="1">
          <mxGeometry x="420" y="1440" width="76.5" height="90" as="geometry" />
        </mxCell>
        <mxCell id="ZW9950_h4QcM178EK5Ji-12" value="&lt;div&gt;Sensors:&lt;/div&gt;&lt;div&gt; - CO2, CO, VOX, Dust particles, Smoke, Humidity, Temperature, dB Level&lt;br&gt;&lt;/div&gt;" style="text;html=1;strokeColor=none;fillColor=none;align=left;verticalAlign=top;whiteSpace=wrap;rounded=0;fontSize=19;" parent="1" vertex="1">
          <mxGeometry x="410" y="1330" width="270" height="110" as="geometry" />
        </mxCell>
        <mxCell id="0EyMxYRM3sE1ujKV8BTT-1" value="Audio amplifier" style="shape=image;html=1;verticalAlign=top;verticalLabelPosition=bottom;labelBackgroundColor=#ffffff;imageAspect=0;aspect=fixed;image=https://cdn2.iconfinder.com/data/icons/analytic-investment-and-balanced-scorecard/512/421_Audio_frequency_hertz_sequence_wave_sound_design_producstion-128.png;strokeColor=#000000;strokeWidth=3;fontSize=20;align=center;" vertex="1" parent="1">
          <mxGeometry x="-184.41" y="1221" width="128" height="128" as="geometry" />
        </mxCell>
        <mxCell id="0EyMxYRM3sE1ujKV8BTT-2" value="Speakers" style="shape=image;html=1;verticalAlign=top;verticalLabelPosition=bottom;labelBackgroundColor=#ffffff;imageAspect=0;aspect=fixed;image=https://cdn2.iconfinder.com/data/icons/analytic-investment-and-balanced-scorecard/512/424_Audio_hifi_monitor_speaker_studio_sound_design_producstion-128.png;strokeColor=#000000;strokeWidth=3;fontSize=20;align=center;" vertex="1" parent="1">
          <mxGeometry x="-200.41" y="1000" width="160" height="160" as="geometry" />
        </mxCell>
        <mxCell id="0EyMxYRM3sE1ujKV8BTT-5" value="User Screen" style="rounded=0;whiteSpace=wrap;html=1;strokeColor=#000000;strokeWidth=3;fontSize=20;align=center;" vertex="1" parent="1">
          <mxGeometry x="-360" y="700" width="440" height="159.75" as="geometry" />
        </mxCell>
        <mxCell id="0EyMxYRM3sE1ujKV8BTT-6" value="&lt;div style=&quot;font-size: 20px;&quot;&gt;PC for user content&lt;br style=&quot;font-size: 20px;&quot;&gt;&lt;/div&gt;" style="shape=image;html=1;verticalAlign=top;verticalLabelPosition=bottom;labelBackgroundColor=#ffffff;imageAspect=0;aspect=fixed;image=https://cdn3.iconfinder.com/data/icons/electronic-devices-vol-1-1/36/1_graphic_card_electronic_device_motherboard_smps_hardware_chip_1-128.png;strokeColor=#000000;strokeWidth=3;fontSize=20;" vertex="1" parent="1">
          <mxGeometry x="-360" y="730" width="150" height="150" as="geometry" />
        </mxCell>
        <mxCell id="0EyMxYRM3sE1ujKV8BTT-7" value="Streaming device" style="shape=image;html=1;verticalAlign=top;verticalLabelPosition=bottom;labelBackgroundColor=#ffffff;imageAspect=0;aspect=fixed;image=https://cdn1.iconfinder.com/data/icons/entertainment-and-movie-solid-streaming-on-screen/512/Responsive-128.png;strokeColor=#000000;strokeWidth=3;fontSize=20;align=center;" vertex="1" parent="1">
          <mxGeometry x="291" y="580" width="128" height="128" as="geometry" />
        </mxCell>
        <mxCell id="0EyMxYRM3sE1ujKV8BTT-10" value="&lt;div style=&quot;font-size: 20px&quot;&gt;PC for Control Panel&lt;br style=&quot;font-size: 20px&quot;&gt;&lt;/div&gt;" style="shape=image;html=1;verticalAlign=top;verticalLabelPosition=bottom;labelBackgroundColor=#ffffff;imageAspect=0;aspect=fixed;image=https://cdn3.iconfinder.com/data/icons/electronic-devices-vol-1-1/36/1_graphic_card_electronic_device_motherboard_smps_hardware_chip_1-128.png;strokeColor=#000000;strokeWidth=3;fontSize=20;" vertex="1" parent="1">
          <mxGeometry x="40" y="980" width="150" height="150" as="geometry" />
        </mxCell>
      </root>
    </mxGraphModel>
  </diagram>
</mxfile>
